<svg width="301" height="25" viewBox="0 0 301 25" fill="none" xmlns="http://www.w3.org/2000/svg">
<path d="M2.90283 8.54844C2.90283 7.22281 3.97721 6.14844 5.30283 6.14844H19.7028C21.0265 6.14844 22.1028 7.22281 22.1028 8.54844V18.1484C22.1028 19.4721 21.0265 20.5484 19.7028 20.5484H5.30283C3.97721 20.5484 2.90283 19.4721 2.90283 18.1484V8.54844ZM4.10283 8.54844V10.0447L11.4378 15.4221C12.0715 15.8871 12.934 15.8871 13.5678 15.4221L20.9028 10.0447V8.54844C20.9028 7.88469 20.3665 7.34844 19.7028 7.34844H5.26908C4.64021 7.34844 4.06908 7.88469 4.06908 8.54844H4.10283ZM4.10283 11.5334V18.1484C4.10283 18.8121 4.64021 19.3484 5.30283 19.3484H19.7028C20.3665 19.3484 20.9028 18.8121 20.9028 18.1484V11.5334L14.2765 16.3896C13.219 17.1659 11.7865 17.1659 10.729 16.3896L4.10283 11.5334Z" fill="#616161" stroke="#616161" stroke-width="0.5"/>
<path d="M54.065 8.127C53.9188 7.98068 53.7242 7.90015 53.5171 7.90015H49.6523C49.4452 7.90015 49.2506 7.98068 49.1043 8.127C48.958 8.27331 48.8774 8.46791 48.8774 8.67499V20.271C48.8774 20.4781 48.958 20.6727 49.1043 20.819C49.2506 20.9653 49.4452 21.0459 49.6523 21.0459H53.5171C53.7242 21.0459 53.9188 20.9653 54.065 20.819C54.2113 20.6728 54.2919 20.4781 54.2919 20.271V8.67499C54.2919 8.46791 54.2113 8.27331 54.065 8.127ZM52.7423 9.4499V19.4961H50.4271V9.4499H52.7423Z" fill="#616161"/>
<path d="M54.0765 3.39549C54.0079 3.23436 53.9247 3.08153 53.8278 2.93794C53.7308 2.79441 53.62 2.66013 53.496 2.53615C52.9825 2.02257 52.3019 1.73975 51.5795 1.73975C51.2141 1.73975 50.8584 1.81237 50.5222 1.95557C50.2001 2.09281 49.911 2.28813 49.663 2.53615C49.1495 3.04967 48.8667 3.73039 48.8667 4.45288C48.8667 4.81836 48.9393 5.17409 49.0825 5.51028C49.2197 5.83248 49.415 6.1216 49.663 6.36962C50.1765 6.88319 50.8571 7.16596 51.5795 7.16596C51.9449 7.16596 52.3006 7.09339 52.6368 6.95019C52.9589 6.81296 53.248 6.61763 53.496 6.36962C54.0095 5.85609 54.2923 5.17537 54.2923 4.45288C54.2923 4.0874 54.2197 3.73167 54.0765 3.39549ZM51.5851 5.61064C51.429 5.61064 51.2775 5.5799 51.1349 5.51924C50.9973 5.46076 50.8736 5.37716 50.7672 5.27084C50.6609 5.16446 50.5773 5.04076 50.5188 4.90307C50.4582 4.76044 50.4274 4.60894 50.4274 4.45288C50.4274 4.29682 50.4582 4.14533 50.5188 4.00263C50.5773 3.86501 50.6609 3.74131 50.7672 3.63493C50.8736 3.5286 50.9973 3.445 51.1349 3.38646C51.2775 3.32587 51.429 3.29507 51.5851 3.29507C51.7412 3.29507 51.8926 3.32587 52.0352 3.38646C52.1729 3.445 52.2965 3.5286 52.4029 3.63493C52.5092 3.74131 52.5928 3.86501 52.6513 4.00263C52.7119 4.14533 52.7427 4.29676 52.7427 4.45288C52.7427 4.53091 52.735 4.60783 52.7197 4.68302C52.7045 4.75821 52.6816 4.83173 52.6513 4.90307C52.5928 5.04076 52.5092 5.16446 52.4029 5.27084C52.2965 5.37716 52.1729 5.46076 52.0352 5.51924C51.8926 5.5799 51.7412 5.61064 51.5851 5.61064Z" fill="#616161"/>
<path d="M68.4148 12.8194C68.3839 12.4385 68.3373 12.0899 68.2747 11.7681C68.2019 11.3945 68.1048 11.0458 67.9861 10.7318C67.8572 10.3906 67.6975 10.0762 67.5116 9.79725C67.3097 9.49449 67.0712 9.22442 66.8026 8.99467C66.5232 8.75573 66.2034 8.5535 65.852 8.39365C65.4951 8.23135 65.0948 8.10793 64.6623 8.02678C64.2261 7.94496 63.7427 7.90347 63.2254 7.90347C62.7695 7.90347 62.325 7.95515 61.9044 8.05713C61.5096 8.15287 61.1341 8.29312 60.7883 8.47407C60.6654 8.53785 60.5459 8.60658 60.4305 8.67965V8.67831C60.4305 8.47123 60.35 8.27663 60.2037 8.13032C60.0574 7.984 59.8628 7.90347 59.6557 7.90347H56.6047V7.89233H56.0916C55.8845 7.89233 55.6899 7.97286 55.5436 8.11918C55.3974 8.26549 55.3168 8.46009 55.3168 8.66717V20.2631C55.3168 20.4703 55.3974 20.6649 55.5436 20.8112C55.6899 20.9575 55.8845 21.038 56.0916 21.038H59.8061C60.0132 21.038 60.2078 20.9574 60.354 20.8112C60.5003 20.6649 60.5809 20.4703 60.5809 20.2631V14.6657C60.5809 14.2954 60.6014 13.9914 60.6436 13.7365C60.6908 13.4515 60.7635 13.2286 60.866 13.0552C60.9612 12.894 61.0856 12.7756 61.2463 12.6933C61.4466 12.5908 61.7134 12.5388 62.0392 12.5388C62.3231 12.5388 62.548 12.5914 62.7076 12.6952C62.8346 12.7779 62.9311 12.9005 63.0026 13.0698L63.0034 13.072C63.0848 13.2644 63.1385 13.5131 63.1677 13.8324C63.1947 14.1276 63.1969 14.4298 63.1969 14.7659V20.2687C63.1969 20.4758 63.2774 20.6704 63.4237 20.8168C63.57 20.963 63.7646 21.0436 63.9717 21.0436H67.6862C67.8932 21.0436 68.0878 20.963 68.2341 20.8168C68.3804 20.6704 68.461 20.4758 68.461 20.2687V14.0641C68.461 13.6134 68.4457 13.2003 68.4148 12.8194ZM64.7023 13.6582C64.6576 13.1971 64.5679 12.8114 64.4283 12.4794C64.3829 12.3707 64.3321 12.2673 64.2764 12.1697C64.2207 12.0722 64.1599 11.9805 64.0946 11.8955C63.9486 11.7052 63.7758 11.5424 63.5809 11.4116C63.3757 11.2739 63.1419 11.1689 62.8862 11.0996C62.6289 11.0299 62.342 10.9946 62.0337 10.9946C61.4586 10.9946 60.9551 11.1022 60.5374 11.3145C60.1143 11.5295 59.7736 11.8539 59.5248 12.2788C59.3317 12.609 59.1989 12.9912 59.1184 13.4473C59.0561 13.8014 59.0257 14.2035 59.0257 14.6768V19.4994H56.8664V9.45322H58.8754V10.5051C58.8754 10.7122 58.9559 10.9069 59.1022 11.0532C59.2485 11.1994 59.4431 11.28 59.6502 11.28H59.7003C59.842 11.28 59.9808 11.2413 60.1016 11.1679C60.2142 11.0995 60.3084 11.0027 60.3742 10.8876L60.3757 10.8848C60.4814 10.6969 60.6297 10.5092 60.8046 10.3421C61.0041 10.1512 61.2366 9.98645 61.4958 9.85234L61.4986 9.85089C61.7355 9.72613 61.9946 9.62916 62.2688 9.56266C62.5682 9.49003 62.8882 9.45322 63.2199 9.45322C63.6261 9.45322 64.0002 9.48357 64.3319 9.54344C64.6421 9.59953 64.924 9.68296 65.1697 9.79163C65.3979 9.89249 65.6026 10.0187 65.7783 10.1667C65.9451 10.3072 66.0928 10.4735 66.2175 10.6611C66.3423 10.8489 66.451 11.0671 66.5405 11.3095C66.6278 11.5462 66.7001 11.8146 66.7552 12.1075C66.8565 12.6452 66.9058 13.287 66.9058 14.0697V19.4994H64.7409V14.7715C64.7409 14.3803 64.738 14.0266 64.7023 13.6582Z" fill="#616161"/>
<g clip-path="url(#clip0_2_1217)">
<path fill-rule="evenodd" clip-rule="evenodd" d="M104.072 7.86184C104.072 5.09864 106.312 2.85864 109.076 2.85864C110.698 2.85864 111.992 3.62504 112.86 4.73864C113.777 4.55063 114.656 4.21047 115.461 3.73224C115.15 4.70217 114.497 5.52634 113.624 6.05224L113.628 6.05704C114.456 5.95696 115.265 5.73425 116.028 5.39624L116.026 5.39944C115.487 6.20744 114.81 6.91944 114.029 7.50024C114.071 7.78344 114.093 8.06664 114.093 8.34824C114.093 14.2474 109.599 21.1082 101.333 21.1082C98.896 21.1103 96.5097 20.4104 94.4597 19.0922C94.3632 19.0303 94.2811 18.9483 94.219 18.8518C94.157 18.7554 94.1164 18.6468 94.1 18.5333C94.0836 18.4198 94.0918 18.3041 94.1241 18.194C94.1563 18.0839 94.2118 17.9821 94.2869 17.8954C94.3583 17.7767 94.4623 17.6812 94.5866 17.6202C94.7109 17.5592 94.8502 17.5353 94.9877 17.5514C96.4533 17.7242 97.9157 17.545 99.2069 16.9818C98.57 16.7004 97.9999 16.2875 97.5338 15.7702C97.0678 15.2529 96.7165 14.6429 96.5029 13.9802C96.4634 13.8569 96.4579 13.7253 96.4869 13.5992C96.5159 13.473 96.5783 13.357 96.6677 13.2634C96.1419 12.8019 95.7207 12.2335 95.4323 11.5961C95.144 10.9587 94.9951 10.267 94.9957 9.56744V9.51304C94.9956 9.34565 95.0539 9.18349 95.1605 9.05442C95.2671 8.92535 95.4153 8.83746 95.5797 8.80584C95.2169 8.1058 95.0281 7.32868 95.0293 6.54024C95.0293 5.79144 95.0341 4.84744 95.5605 3.99624C95.6167 3.90606 95.6922 3.82946 95.7816 3.77192C95.8709 3.71438 95.9719 3.67733 96.0773 3.66344C96.2301 3.61525 96.3938 3.61405 96.5473 3.65998C96.7007 3.7059 96.8369 3.79685 96.9381 3.92104C98.7216 6.1151 101.273 7.54903 104.074 7.93224V7.86184H104.072ZM101.333 19.5082C100.109 19.5091 98.8932 19.3074 97.7349 18.9114C99.1281 18.6816 100.442 18.1086 101.559 17.2442C101.676 17.1524 101.762 17.0266 101.804 16.8841C101.847 16.7417 101.844 16.5895 101.797 16.4485C101.75 16.3075 101.66 16.1846 101.54 16.0968C101.42 16.0089 101.276 15.9604 101.127 15.9578C100.591 15.9482 100.065 15.8149 99.5893 15.5685C99.1136 15.322 98.7013 14.969 98.3845 14.537C98.6885 14.513 98.9861 14.4602 99.2741 14.3834C99.4311 14.3414 99.5693 14.2476 99.6662 14.1171C99.763 13.9867 99.813 13.8272 99.8078 13.6648C99.8026 13.5024 99.7426 13.3465 99.6376 13.2225C99.5325 13.0985 99.3886 13.0137 99.2293 12.9818C98.6206 12.8585 98.0558 12.5749 97.5934 12.1603C97.131 11.7456 96.7877 11.2151 96.5989 10.6234C96.9189 10.7002 97.2533 10.7466 97.5957 10.7578C97.7522 10.7631 97.9061 10.7172 98.0341 10.6271C98.1622 10.537 98.2574 10.4077 98.3053 10.2587C98.3533 10.1096 98.3513 9.94904 98.2998 9.8012C98.2482 9.65337 98.1499 9.52637 98.0197 9.43944C97.5422 9.12137 97.1508 8.6903 96.88 8.18452C96.6093 7.67874 96.4676 7.11392 96.4677 6.54024C96.4677 6.27144 96.4725 6.03304 96.4885 5.81544C98.7273 8.10022 101.745 9.45758 104.94 9.61704C105.063 9.62331 105.186 9.60093 105.299 9.55165C105.413 9.50237 105.513 9.42752 105.593 9.33298C105.672 9.23844 105.729 9.12676 105.758 9.00672C105.787 8.88667 105.788 8.76151 105.76 8.64104C105.643 8.14144 105.64 7.62174 105.752 7.12082C105.863 6.6199 106.087 6.15075 106.406 5.74847C106.724 5.34619 107.13 5.02121 107.592 4.79784C108.054 4.57448 108.561 4.45852 109.074 4.45864C111.048 4.45864 112.492 6.28744 112.492 8.34984C112.492 13.5594 108.532 19.5082 101.333 19.5082Z" fill="#616161"/>
</g>
<g clip-path="url(#clip1_2_1217)">
<path d="M154.256 11.6624L149.306 8.36235C149.182 8.27944 149.037 8.23182 148.888 8.22459C148.739 8.21737 148.591 8.25079 148.459 8.3213C148.327 8.39181 148.217 8.49677 148.14 8.62496C148.064 8.75315 148.023 8.89977 148.023 9.04916V15.6492C148.023 15.7986 148.064 15.9452 148.14 16.0734C148.217 16.2016 148.327 16.3065 148.459 16.377C148.591 16.4476 148.739 16.481 148.888 16.4738C149.037 16.4665 149.182 16.4189 149.306 16.336L154.256 13.036C154.369 12.9607 154.462 12.8586 154.526 12.7388C154.59 12.6189 154.624 12.4851 154.624 12.3492C154.624 12.2133 154.59 12.0794 154.526 11.9596C154.462 11.8398 154.369 11.7377 154.256 11.6624ZM149.673 14.1075V10.5961L152.311 12.3492L149.673 14.1075ZM161.464 6.31841C161.366 5.93824 161.18 5.58662 160.92 5.29256C160.661 4.9985 160.335 4.77043 159.969 4.62716C156.434 3.26179 150.808 3.27417 150.498 3.27417C150.189 3.27417 144.562 3.26179 141.027 4.62716C140.662 4.77043 140.336 4.9985 140.076 5.29256C139.816 5.58662 139.63 5.93824 139.533 6.31841C139.266 7.3476 138.948 9.2286 138.948 12.3492C138.948 15.4697 139.266 17.3507 139.533 18.3799C139.63 18.7603 139.816 19.1121 140.076 19.4064C140.336 19.7006 140.662 19.9288 141.027 20.0722C144.414 21.3788 149.715 21.4242 150.43 21.4242H150.566C151.282 21.4242 156.586 21.3788 159.969 20.0722C160.335 19.9288 160.661 19.7006 160.921 19.4064C161.18 19.1121 161.367 18.7603 161.464 18.3799C161.731 17.3487 162.048 15.4697 162.048 12.3492C162.048 9.2286 161.731 7.3476 161.464 6.31841ZM159.866 17.9716C159.835 18.0981 159.774 18.2154 159.688 18.3138C159.603 18.4122 159.495 18.4889 159.374 18.5377C156.11 19.7979 150.559 19.7752 150.505 19.7752H150.498C150.443 19.7752 144.895 19.7958 141.629 18.5377C141.509 18.4889 141.401 18.4122 141.315 18.3138C141.23 18.2154 141.169 18.0981 141.138 17.9716C140.887 17.03 140.598 15.2955 140.598 12.3492C140.598 9.40288 140.887 7.66832 141.13 6.73195C141.161 6.60467 141.222 6.48657 141.307 6.3874C141.393 6.28823 141.501 6.21086 141.622 6.16166C144.77 4.94582 150.043 4.92416 150.476 4.92416H150.503C150.559 4.92416 156.111 4.9056 159.372 6.16166C159.493 6.21046 159.601 6.2872 159.686 6.38561C159.772 6.48402 159.833 6.6013 159.864 6.72782C160.11 7.66832 160.398 9.40288 160.398 12.3492C160.398 15.2955 160.11 17.03 159.866 17.9664V17.9716Z" fill="#616161"/>
</g>
<g clip-path="url(#clip2_2_1217)">
<path fill-rule="evenodd" clip-rule="evenodd" d="M192.623 3.26962C192.555 3.25903 192.487 3.25741 192.419 3.26482C191.074 3.41042 189.026 4.13682 187.816 4.79282C187.736 4.8364 187.665 4.89382 187.605 4.96242C187.103 5.53682 186.647 6.47282 186.29 7.35922C185.922 8.26802 185.618 9.22802 185.447 9.92242C184.88 12.1784 184.571 14.8872 184.53 17.4568C184.529 17.585 184.559 17.7115 184.619 17.8248C185.099 18.7416 186.135 19.5912 187.171 20.212C188.219 20.8408 189.443 21.3368 190.429 21.4328C190.547 21.4441 190.666 21.4278 190.777 21.3854C190.888 21.3429 190.987 21.2753 191.067 21.188C191.314 20.9208 191.733 20.2968 192.05 19.812C192.194 19.5912 192.33 19.38 192.435 19.212C193.495 19.404 194.823 19.516 196.503 19.516C198.179 19.516 199.507 19.404 200.567 19.212C200.672 19.3816 200.807 19.5912 200.951 19.8104C201.267 20.2968 201.687 20.9208 201.935 21.188C202.015 21.2753 202.114 21.3429 202.225 21.3854C202.336 21.4278 202.455 21.4441 202.573 21.4328C203.559 21.3368 204.781 20.8408 205.829 20.212C206.866 19.5912 207.901 18.7416 208.383 17.8248C208.442 17.7114 208.472 17.5849 208.471 17.4568C208.431 14.8872 208.12 12.1768 207.557 9.92082C207.331 9.04951 207.048 8.19384 206.711 7.35922C206.354 6.47282 205.898 5.53522 205.397 4.96242C205.337 4.89367 205.265 4.83624 205.184 4.79282C203.976 4.13682 201.928 3.41042 200.581 3.26482C200.514 3.25755 200.446 3.25917 200.379 3.26962C200.078 3.32765 199.795 3.45837 199.555 3.65042C199.019 4.08248 198.585 4.62845 198.285 5.24882C197.692 5.20231 197.097 5.17936 196.503 5.18002C195.859 5.18002 195.264 5.20402 194.715 5.24722C194.415 4.62743 193.982 4.08202 193.445 3.65042C193.206 3.4586 192.924 3.3279 192.623 3.26962ZM202.131 18.8088C202.357 19.1556 202.588 19.4986 202.824 19.8376C203.458 19.6936 204.266 19.3576 205.04 18.8936C205.909 18.3736 206.599 17.7736 206.931 17.2664C206.879 14.8568 206.581 12.3544 206.067 10.2936C205.858 9.49097 205.597 8.70267 205.287 7.93362C204.967 7.13682 204.623 6.46162 204.323 6.07442C203.283 5.53522 201.643 4.96562 200.575 4.81042C200.542 4.82993 200.511 4.8513 200.482 4.87442C200.349 4.97872 200.228 5.09671 200.12 5.22642C200.057 5.30153 199.997 5.37891 199.939 5.45842C200.427 5.54802 200.863 5.65522 201.248 5.77362C202.343 6.10962 203.131 6.57362 203.517 7.08722C203.639 7.25017 203.692 7.45499 203.663 7.65663C203.634 7.85827 203.526 8.04021 203.363 8.16242C203.283 8.22293 203.191 8.26696 203.093 8.29199C202.996 8.31702 202.894 8.32257 202.794 8.3083C202.592 8.2795 202.41 8.17177 202.288 8.00882C202.194 7.88402 201.783 7.54482 200.797 7.24082C199.845 6.94962 198.445 6.71602 196.503 6.71602C194.56 6.71602 193.159 6.94962 192.208 7.24242C191.223 7.54642 190.811 7.88242 190.717 8.00882C190.657 8.08951 190.581 8.15748 190.494 8.20887C190.407 8.26025 190.311 8.29404 190.211 8.3083C190.01 8.33711 189.805 8.28463 189.642 8.16242C189.561 8.10191 189.493 8.0261 189.442 7.93931C189.39 7.85253 189.357 7.75647 189.342 7.65663C189.314 7.45499 189.366 7.25017 189.488 7.08722C189.874 6.57202 190.663 6.11122 191.757 5.77522C192.141 5.65522 192.576 5.54962 193.063 5.46002C193.005 5.37964 192.944 5.30171 192.88 5.22642C192.773 5.09679 192.652 4.97881 192.52 4.87442C192.49 4.85125 192.459 4.82988 192.426 4.81042C191.359 4.96562 189.719 5.53522 188.679 6.07442C188.378 6.46322 188.035 7.13682 187.714 7.93362C187.373 8.78162 187.09 9.67282 186.935 10.2936C186.419 12.3544 186.122 14.8568 186.071 17.2664C186.403 17.7752 187.091 18.3736 187.96 18.8952C188.736 19.3592 189.543 19.6952 190.178 19.8376C190.417 19.5002 190.648 19.1572 190.871 18.8088C189.615 18.3624 188.941 17.7496 188.503 17.0936C188.447 17.0096 188.408 16.9153 188.388 16.8163C188.369 16.7172 188.369 16.6153 188.389 16.5164C188.409 16.4174 188.448 16.3234 188.505 16.2396C188.561 16.1558 188.633 16.0839 188.717 16.028C188.801 15.9721 188.895 15.9333 188.994 15.9138C189.093 15.8944 189.195 15.8946 189.294 15.9145C189.393 15.9344 189.487 15.9736 189.571 16.0299C189.655 16.0861 189.727 16.1584 189.783 16.2424C190.199 16.8696 191.293 17.98 196.503 17.98C201.714 17.98 202.807 16.8696 203.223 16.2424C203.336 16.0727 203.511 15.9547 203.711 15.9145C203.911 15.8743 204.118 15.9151 204.288 16.028C204.458 16.1409 204.576 16.3166 204.616 16.5164C204.656 16.7162 204.616 16.9239 204.503 17.0936C204.064 17.7496 203.389 18.364 202.131 18.8088ZM191.031 11.5672C191.421 11.148 191.951 10.9112 192.503 10.908C193.055 10.9112 193.584 11.148 193.975 11.5672C194.363 11.988 194.583 12.556 194.583 13.148C194.583 13.74 194.363 14.308 193.975 14.7288C193.584 15.148 193.055 15.3848 192.503 15.388C192.225 15.3851 191.951 15.325 191.698 15.2116C191.445 15.0982 191.218 14.9339 191.031 14.7288C190.636 14.2971 190.419 13.7326 190.423 13.148C190.423 12.556 190.642 11.988 191.031 11.5672ZM200.503 10.908C199.951 10.9112 199.421 11.148 199.031 11.5672C198.642 11.988 198.423 12.556 198.423 13.148C198.423 13.74 198.642 14.308 199.031 14.7288C199.421 15.148 199.951 15.3848 200.503 15.388C201.055 15.3848 201.584 15.148 201.975 14.7288C202.363 14.308 202.583 13.74 202.583 13.148C202.583 12.556 202.363 11.988 201.975 11.5672C201.788 11.3621 201.561 11.1978 201.307 11.0844C201.054 10.971 200.78 10.9109 200.503 10.908Z" fill="#616161"/>
</g>
<path fill-rule="evenodd" clip-rule="evenodd" d="M239.806 2.94775C238.992 2.94775 238.254 3.23852 237.66 3.66274C236.907 4.1781 236.51 4.90622 236.256 5.58659L236.248 5.60684L236.243 5.62778C236.049 6.39286 236.042 7.24745 236.314 7.98178C236.52 8.58687 236.85 9.11776 237.308 9.53093C237 9.81032 236.705 10.1494 236.508 10.5716C236.244 11.1367 236.111 11.7085 236.111 12.3477C236.111 12.9869 236.244 13.5587 236.508 14.1238C236.703 14.5432 236.968 14.8858 237.295 15.1764C236.842 15.5891 236.516 16.1176 236.312 16.7193C236.044 17.5087 236.047 18.2955 236.243 19.0677C236.447 19.8718 236.923 20.5224 237.581 21.0186C238.208 21.5377 239.021 21.7477 239.746 21.7477C240.705 21.7477 241.634 21.3101 242.347 20.684L242.362 20.6708L242.376 20.6561C243.038 19.9452 243.442 19.014 243.442 18.0049V15.7254C243.979 16.0452 244.586 16.2191 245.199 16.2191H245.259C246.075 16.2191 246.814 15.9272 247.409 15.5016L247.421 15.4929L247.432 15.4834C248.023 14.9908 248.498 14.3436 248.702 13.5391C248.897 12.774 248.901 11.9946 248.641 11.2125C248.481 10.4931 248.124 9.94258 247.696 9.53167C248.156 9.11712 248.487 8.58394 248.693 7.97615C248.961 7.18673 248.958 6.39998 248.762 5.62778C248.558 4.82331 248.082 4.17605 247.492 3.68349C246.864 3.15951 246.047 2.94775 245.319 2.94775H239.806ZM245.259 4.84061C245.585 4.84061 245.774 4.84971 245.908 4.92166L245.924 4.92989L245.94 4.93676C246.226 5.05938 246.376 5.1517 246.489 5.31264L246.521 5.35936L246.566 5.3951C246.715 5.51508 246.804 5.68116 246.921 5.99462C247.029 6.28539 247.076 6.49415 247.076 6.75489C247.076 7.03194 247.023 7.29307 246.933 7.48593C246.837 7.69237 246.692 7.90597 246.521 8.1504C246.3 8.32849 246.108 8.47847 245.924 8.57955C245.715 8.6653 245.498 8.66918 245.259 8.66918H243.442V4.84061H245.259ZM238.601 5.42048C238.885 5.11549 239.324 4.8992 239.771 4.84061H241.563V8.54061H239.746C239.332 8.54061 238.906 8.34129 238.621 7.9838L238.602 7.95982L238.579 7.93904C238.267 7.65168 238.109 7.19574 238.109 6.69061C238.109 6.21407 238.31 5.73274 238.601 5.42048ZM245.259 10.4977C245.585 10.4977 245.774 10.5068 245.908 10.5788L245.924 10.587L245.94 10.5939C246.226 10.7165 246.376 10.8088 246.489 10.9697L246.521 11.0165L246.566 11.0522C246.715 11.1722 246.804 11.3383 246.921 11.6517L246.927 11.6666L246.933 11.681C247.023 11.8738 247.076 12.1349 247.076 12.412C247.076 12.689 247.023 12.9502 246.933 13.143C246.837 13.3495 246.692 13.5631 246.521 13.8075C246.327 13.964 246.155 14.0987 245.991 14.1977H245.199C244.784 14.1977 244.359 13.9984 244.073 13.6409C243.751 13.2381 243.562 12.8092 243.562 12.3477C243.562 11.8712 243.762 11.3898 244.053 11.0776L244.064 11.0664L244.073 11.0545C244.337 10.7246 244.747 10.5581 245.223 10.4977H245.259ZM238.541 11.0133C238.873 10.6572 239.299 10.4977 239.806 10.4977H241.623V14.1977H239.806C239.331 14.1977 238.889 13.9961 238.531 13.6709C238.181 13.2903 237.989 12.812 237.989 12.3477C237.989 11.8788 238.185 11.3957 238.541 11.0133ZM238.484 16.5451C238.705 16.367 238.897 16.217 239.081 16.1159C239.291 16.0302 239.507 16.0263 239.746 16.0263H241.563V17.9406C241.563 18.4856 241.361 18.9523 241.033 19.2533L241.022 19.2637L241.012 19.275C240.68 19.6311 240.253 19.7906 239.746 19.7906C239.42 19.7906 239.231 19.7815 239.097 19.7095L239.081 19.7013L239.065 19.6944C238.776 19.5702 238.601 19.4682 238.481 19.3393L238.462 19.3183L238.439 19.3004C238.29 19.1804 238.201 19.0143 238.084 18.7008L238.078 18.686L238.072 18.6716C237.982 18.4787 237.929 18.2176 237.929 17.9406C237.929 17.6635 237.982 17.4024 238.072 17.2095C238.168 17.0031 238.313 16.7895 238.484 16.5451Z" fill="#616161"/>
<path d="M291.74 12.3483C291.74 10.5483 290.3 9.10829 288.5 9.10829C286.7 9.10829 285.26 10.5483 285.26 12.3483C285.26 14.1483 286.7 15.5883 288.5 15.5883C290.3 15.5883 291.74 14.1483 291.74 12.3483ZM293.42 12.3483C293.42 15.1083 291.26 17.2683 288.5 17.2683C285.74 17.2683 283.58 15.1083 283.58 12.3483C283.58 9.58829 285.74 7.42829 288.5 7.42829C291.26 7.42829 293.42 9.58829 293.42 12.3483ZM294.74 7.18829C294.74 7.90829 294.26 8.38829 293.54 8.38829C292.82 8.38829 292.34 7.90829 292.34 7.18829C292.34 6.46829 292.82 5.98829 293.54 5.98829C294.26 5.98829 294.74 6.58829 294.74 7.18829ZM288.5 4.42829C287.06 4.42829 284.06 4.30829 282.86 4.78829C282.02 5.14829 281.3 5.86829 281.06 6.70829C280.58 7.90829 280.7 10.9083 280.7 12.3483C280.7 13.7883 280.58 16.7883 281.06 17.9883C281.3 18.8283 282.02 19.5483 282.86 19.7883C284.06 20.2683 287.18 20.1483 288.5 20.1483C289.82 20.1483 292.94 20.2683 294.14 19.7883C294.98 19.4283 295.58 18.8283 295.94 17.9883C296.42 16.6683 296.3 13.6683 296.3 12.3483C296.3 11.0283 296.42 7.90829 295.94 6.70829C295.7 5.86829 294.98 5.14829 294.14 4.90829C292.94 4.30829 289.94 4.42829 288.5 4.42829ZM298.1 12.3483V16.3083C298.1 17.7483 297.62 19.1883 296.54 20.3883C295.46 21.4683 294.02 21.9483 292.46 21.9483H284.54C283.1 21.9483 281.66 21.4683 280.46 20.3883C279.5 19.3083 278.9 17.8683 278.9 16.3083V8.38829C278.9 6.82829 279.5 5.38829 280.46 4.30829C281.66 3.34829 283.1 2.74829 284.54 2.74829H292.46C293.9 2.74829 295.34 3.22829 296.54 4.30829C297.5 5.38829 298.1 6.82829 298.1 8.38829V12.3483Z" fill="#616161"/>
<defs>
<clipPath id="clip0_2_1217">
<rect width="24" height="24" fill="white" transform="translate(92.4995 0.348389)"/>
</clipPath>
<clipPath id="clip1_2_1217">
<rect width="24" height="24" fill="white" transform="translate(138.5 0.348389)"/>
</clipPath>
<clipPath id="clip2_2_1217">
<rect width="24" height="24" fill="white" transform="translate(184.502 0.348389)"/>
</clipPath>
</defs>
</svg>
